<?xml version="1.0" standalone="no"?>
<!DOCTYPE svg PUBLIC "-//W3C//DTD SVG 20010904//EN"
 "http://www.w3.org/TR/2001/REC-SVG-20010904/DTD/svg10.dtd">
<svg version="1.0" xmlns="http://www.w3.org/2000/svg"
 width="700.000000pt" height="700.000000pt" viewBox="0 0 700.000000 700.000000"
 preserveAspectRatio="xMidYMid meet">
<metadata>
Created by potrace 1.14, written by Peter Selinger 2001-2017
</metadata>
<g transform="translate(0.000000,700.000000) scale(0.100000,-0.100000)"
fill="#000000" stroke="none">
<path d="M3370 6985 c-351 -86 -541 -451 -410 -786 12 -29 28 -61 36 -70 8 -8
14 -20 14 -26 0 -6 22 -36 50 -66 l50 -54 2 -487 3 -486 -65 -21 c-233 -75
-456 -204 -612 -355 l-46 -45 -359 207 c-197 114 -369 214 -383 221 -98 54
-102 58 -121 119 -45 147 -169 287 -310 352 -125 57 -303 67 -429 23 -248 -86
-403 -309 -395 -568 3 -100 6 -117 37 -193 105 -265 371 -414 649 -362 l79 14
82 -47 c46 -26 198 -114 338 -195 140 -81 273 -158 295 -170 125 -69 127 -71
120 -99 -62 -242 -65 -520 -9 -745 9 -32 12 -62 7 -66 -7 -6 -236 -139 -383
-222 -19 -11 -75 -44 -125 -73 -49 -29 -110 -64 -135 -77 -25 -14 -77 -45
-117 -68 l-72 -42 -57 12 c-281 59 -559 -85 -667 -345 -33 -81 -39 -107 -43
-200 -5 -123 31 -256 95 -349 35 -51 123 -134 176 -168 126 -79 295 -108 437
-73 201 48 360 191 424 383 19 54 28 68 60 87 22 12 211 122 422 244 l383 222
52 -50 c156 -149 361 -268 592 -345 l80 -26 -3 -487 -2 -486 -38 -41 c-248
-271 -186 -700 128 -891 295 -179 687 -58 829 257 99 219 56 475 -108 645
l-31 32 0 489 0 488 53 14 c193 49 445 192 611 348 l57 52 155 -90 c86 -49
160 -90 165 -90 5 0 9 -4 9 -10 0 -5 4 -10 9 -10 8 0 68 -34 156 -87 11 -7 27
-15 35 -19 15 -7 207 -119 282 -163 26 -16 39 -32 43 -54 18 -82 76 -179 154
-256 70 -70 100 -90 201 -134 85 -38 259 -46 365 -17 180 49 337 201 395 381
28 87 33 242 12 324 -80 300 -387 492 -683 427 l-67 -15 -422 244 c-374 216
-421 245 -415 264 22 72 46 257 47 365 2 147 -5 232 -32 355 -14 69 -16 92 -7
98 7 4 118 69 247 144 129 74 313 180 408 235 126 73 178 99 195 95 315 -78
620 85 718 385 34 103 34 252 0 357 -111 337 -497 497 -819 338 -97 -47 -208
-160 -255 -258 -20 -42 -40 -90 -43 -108 -5 -26 -18 -39 -73 -70 -217 -127
-693 -401 -697 -401 -2 0 -22 -12 -44 -27 l-41 -26 -27 30 c-124 135 -379 289
-602 362 l-95 32 5 488 5 489 40 44 c76 81 125 184 140 298 12 85 11 120 -5
202 -29 141 -108 264 -227 356 -120 93 -321 134 -473 97z"/>
</g>
</svg>
